<svg viewBox="0 0 20 20" fill="none" xmlns="http://www.w3.org/2000/svg" width="20" height="20" aria-hidden="true"><path d="M7.15583 6.86345L9.32083 2.50345C9.38385 2.37727 9.48078 2.27114 9.60074 2.19696C9.7207 2.12279 9.85896 2.0835 10 2.0835C10.141 2.0835 10.2793 2.12279 10.3993 2.19696C10.5192 2.27114 10.6161 2.37727 10.6792 2.50345L12.8442 6.86345L17.6842 7.56678C17.8238 7.58614 17.9551 7.64436 18.0632 7.73479C18.1713 7.82522 18.2518 7.94423 18.2955 8.07822C18.3392 8.21221 18.3444 8.35579 18.3104 8.49257C18.2764 8.62936 18.2047 8.75383 18.1033 8.85178L14.6017 12.2434L15.4283 17.0351C15.5342 17.6501 14.8842 18.1184 14.3283 17.8284L10 15.5651L5.67083 17.8284C5.11583 18.1193 4.46583 17.6501 4.57166 17.0343L5.39833 12.2426L1.89666 8.85095C1.79582 8.75293 1.7245 8.62858 1.6908 8.49204C1.65711 8.3555 1.66239 8.21225 1.70606 8.07857C1.74972 7.94489 1.83001 7.82613 1.9378 7.73581C2.0456 7.64548 2.17657 7.58721 2.31583 7.56762L7.15583 6.86345Z" fill="currentColor" stroke="currentColor" stroke-width="1.5" stroke-linecap="round" stroke-linejoin="round"></path></svg>