<svg viewBox="0 0 20 20" fill="none" xmlns="http://www.w3.org/2000/svg" width="20" height="20"><path d="M4.16602 16.6666V15.8333C4.16602 14.2862 4.7806 12.8024 5.87456 11.7085C6.96852 10.6145 8.45225 9.99992 9.99935 9.99992M9.99935 9.99992C11.5464 9.99992 13.0302 10.6145 14.1241 11.7085C15.2181 12.8024 15.8327 14.2862 15.8327 15.8333V16.6666M9.99935 9.99992C10.8834 9.99992 11.7313 9.64873 12.3564 9.02361C12.9815 8.39849 13.3327 7.55064 13.3327 6.66659C13.3327 5.78253 12.9815 4.93468 12.3564 4.30956C11.7313 3.68444 10.8834 3.33325 9.99935 3.33325C9.11529 3.33325 8.26745 3.68444 7.64233 4.30956C7.0172 4.93468 6.66602 5.78253 6.66602 6.66659C6.66602 7.55064 7.0172 8.39849 7.64233 9.02361C8.26745 9.64873 9.11529 9.99992 9.99935 9.99992Z" stroke="currentColor" stroke-width="1.5" stroke-linecap="round" stroke-linejoin="round"></path></svg>